<svg xmlns="http://www.w3.org/2000/svg" width="90" height="90" viewBox="0 0 90 90">
  <g id="Various_Packages" data-name="Various Packages" transform="translate(-298 -1469)">
    <g id="Rectangle_4097" data-name="Rectangle 4097" transform="translate(298 1469)" fill="#fff" stroke="#707070" stroke-width="1" opacity="0">
      <rect width="90" height="90" stroke="none"/>
      <rect x="0.5" y="0.5" width="89" height="89" fill="none"/>
    </g>
    <g id="Group_23569" data-name="Group 23569">
      <circle id="Ellipse_988" data-name="Ellipse 988" cx="6.5" cy="6.5" r="6.5" transform="translate(330 1514)" fill="#ebedef"/>
      <g id="noun-money-3625987" transform="translate(141.75 1340.25)">
        <path id="Path_42979" data-name="Path 42979" d="M221.25,162.083H167.917a1.667,1.667,0,0,0-1.667,1.667v33.333a1.666,1.666,0,0,0,1.667,1.667H221.25a1.666,1.666,0,0,0,1.667-1.667V163.75a1.666,1.666,0,0,0-1.667-1.667Zm-8.167,33.333h-37a8.336,8.336,0,0,0-6.5-6.5v-17a8.336,8.336,0,0,0,6.5-6.5h37a8.337,8.337,0,0,0,6.5,6.5v17a8.336,8.336,0,0,0-6.5,6.5Zm6.5-26.966a5,5,0,0,1-3.034-3.034h3.034Zm-46.966-3.034a5,5,0,0,1-3.034,3.034v-3.034Zm-3.034,26.966a5,5,0,0,1,3.034,3.034h-3.034Zm46.966,3.034a5,5,0,0,1,3.034-3.034v3.034Zm13.034-38.333v33.333a1.667,1.667,0,1,1-3.333,0V158.75H174.583a1.667,1.667,0,0,1,0-3.333h53.333a1.666,1.666,0,0,1,1.667,1.667Zm6.667-6.667V183.75a1.667,1.667,0,1,1-3.333,0V152.083H181.25a1.667,1.667,0,1,1,0-3.333h53.333a1.666,1.666,0,0,1,1.667,1.667Zm-41.667,21.667a8.332,8.332,0,1,0,5.893,2.44A8.337,8.337,0,0,0,194.583,172.083Zm0,13.333a5,5,0,1,1,3.536-1.464A5,5,0,0,1,194.583,185.417Z" transform="translate(0 0)" fill="#9c3"/>
      </g>
    </g>
  </g>
</svg>
