<svg xmlns="http://www.w3.org/2000/svg" width="75" height="70.285" viewBox="0 0 75 70.285"><defs><style>.a{fill:#ebedef;}.b,.c{fill:#9c3;}.c{stroke:#ebedef;}</style></defs><g transform="translate(0 -16.094)"><g transform="translate(14.203 27.94)"><circle class="a" cx="23.297" cy="23.297" r="23.297" transform="translate(0 0)"/></g><g transform="translate(0 16.094)"><path class="b" d="M70.842,272.346a1.464,1.464,0,0,0-1.716,1.161,32.217,32.217,0,0,1-63.055.95l.382.382a1.465,1.465,0,1,0,2.072-2.071l-3.012-3.013a1.464,1.464,0,0,0-2.072,0L.429,272.768A1.465,1.465,0,1,0,2.5,274.839l.542-.542A35.146,35.146,0,0,0,72,274.062,1.465,1.465,0,0,0,70.842,272.346Z" transform="translate(0 -232.231)"/><path class="b" d="M91.876,43.771a1.465,1.465,0,0,0-2.072,0l-.542.542a35.146,35.146,0,0,0-68.96.235,1.465,1.465,0,1,0,2.877.554,32.217,32.217,0,0,1,63.055-.95l-.382-.382a1.465,1.465,0,1,0-2.072,2.071l3.012,3.013a1.464,1.464,0,0,0,2.072,0l3.012-3.013A1.464,1.464,0,0,0,91.876,43.771Z" transform="translate(-17.306 -16.094)"/><path class="c" d="M261.168,224.226a1.463,1.463,0,0,0,1.9-.82l4.054-10.192a1.465,1.465,0,1,0-2.722-1.083l-4.054,10.192a1.465,1.465,0,0,0,.82,1.9Z" transform="translate(-222.123 -182.614)"/><path class="c" d="M314.529,214.141h3.363l-3.578,8.138A1.465,1.465,0,1,0,317,223.459l4.481-10.192a1.465,1.465,0,0,0-1.341-2.054h-5.607a1.465,1.465,0,1,0,0,2.929Z" transform="translate(-267.205 -182.62)"/><path class="c" d="M193.873,220.6a1.465,1.465,0,0,0,1.261.72h3.622c0,.54-.008,1.057-.012,1.531a1.465,1.465,0,0,0,1.452,1.477h.013a1.465,1.465,0,0,0,1.465-1.452c0-.383.008-.927.013-1.564a1.465,1.465,0,0,0,.019-2.912c.013-2.384.018-4.785-.012-5.144a2.187,2.187,0,0,0-1.466-1.965,2.111,2.111,0,0,0-2.281.81c-.58.711-3.057,5.165-4.1,7.046A1.464,1.464,0,0,0,193.873,220.6Zm4.912-4.255c0,.633-.005,1.329-.009,2.046h-1.15C198.033,217.661,198.428,216.962,198.785,216.341Z" transform="translate(-165.3 -182.608)"/><path class="c" d="M147.74,223.827a1.465,1.465,0,0,0-.018-2.93H147.7c-.8.01-1.645.017-2.406.021.527-.714,1.2-1.649,2.058-2.87a8.045,8.045,0,0,0,1.31-2.722,3.068,3.068,0,0,0,.088-.725,4.073,4.073,0,0,0-8.07-.788,1.465,1.465,0,0,0,2.875.565,1.144,1.144,0,0,1,2.263.149l-.026.2a5.329,5.329,0,0,1-.841,1.641c-1.611,2.3-2.572,3.56-3.088,4.236-.662.867-1.027,1.344-.783,2.137a1.529,1.529,0,0,0,.98.995,8.073,8.073,0,0,0,2.353.117C145.2,223.853,146.272,223.846,147.74,223.827Z" transform="translate(-120.053 -181.936)"/></g></g></svg>