<svg xmlns="http://www.w3.org/2000/svg" width="70" height="70" viewBox="0 0 70 70"><defs><style>.a{fill:#9c3;}.b{fill:#ebedef;}</style></defs><path class="a" d="M247.367,43.162A1.367,1.367,0,0,0,246,44.529v2.59a1.367,1.367,0,0,0,2.734,0v-2.59A1.367,1.367,0,0,0,247.367,43.162Z" transform="translate(-212.367 -37.261)"/><path class="a" d="M247.367,434.311A1.367,1.367,0,0,0,246,435.678v2.59a1.367,1.367,0,0,0,2.734,0v-2.59A1.367,1.367,0,0,0,247.367,434.311Z" transform="translate(-212.367 -374.933)"/><path class="a" d="M436.06,248.208h-2.59a1.367,1.367,0,0,0,0,2.734h2.59a1.367,1.367,0,0,0,0-2.734Z" transform="translate(-373.026 -214.273)"/><path class="a" d="M44.911,248.208h-2.59a1.367,1.367,0,1,0,0,2.734h2.59a1.367,1.367,0,1,0,0-2.734Z" transform="translate(-35.355 -214.273)"/><path class="a" d="M379.826,103.619l-1.831,1.831a1.367,1.367,0,1,0,1.933,1.934l1.831-1.831a1.367,1.367,0,0,0-1.933-1.934Z" transform="translate(-325.97 -89.106)"/><path class="a" d="M103.242,380.2l-1.831,1.831a1.367,1.367,0,1,0,1.933,1.934l1.831-1.831a1.367,1.367,0,1,0-1.933-1.934Z" transform="translate(-87.2 -327.876)"/><path class="a" d="M379.928,380.2a1.367,1.367,0,0,0-1.934,1.934l1.831,1.831a1.367,1.367,0,0,0,1.933-1.934Z" transform="translate(-325.97 -327.876)"/><path class="a" d="M103.344,103.619a1.367,1.367,0,1,0-1.934,1.934l1.831,1.831a1.367,1.367,0,0,0,1.933-1.934Z" transform="translate(-87.2 -89.106)"/><path class="a" d="M59.749,10.251a35,35,0,1,0-49.5,49.5,35,35,0,1,0,49.5-49.5ZM35,67.266A32.266,32.266,0,1,1,67.266,35,32.3,32.3,0,0,1,35,67.266Z"/><g transform="translate(14.862 14.862)"><circle class="b" cx="20.138" cy="20.138" r="20.138"/><path class="a" d="M10.57-12.082H8.326a4.508,4.508,0,0,1,.644,1.793h2.158l-.569,2.115h-1.6A4.211,4.211,0,0,1,7.681-5.622,5.989,5.989,0,0,1,4.718-4.3L9.41,1.265v.15H5.856l-5.2-6.09-.011-1.9H3.193a2.3,2.3,0,0,0,2.491-1.6H.391l.558-2.115H5.62A2.245,2.245,0,0,0,3.311-11.61H.391l.634-2.609h10.1Z" transform="translate(13.922 26.175)"/></g></svg>