<svg xmlns="http://www.w3.org/2000/svg" width="90" height="73.767" viewBox="0 0 90 73.767"><defs><style>.a,.d{fill:#ebedef;}.a,.b{fill-rule:evenodd;}.b,.c{fill:#fff;}.e{fill:#9c3;}</style></defs><g transform="translate(-1112.12 -1464.261)"><g transform="translate(1128.32 1464.261)"><path class="a" d="M48.815,42.977a20.22,20.22,0,0,1,13.483,19V85.662a1.806,1.806,0,0,1-1.8,1.8H49.576V71.63H34.737V87.459H23.808a1.806,1.806,0,0,1-1.8-1.8V61.98a20.219,20.219,0,0,1,13.487-19A10.346,10.346,0,0,0,48.815,42.977Z" transform="translate(-19.607 -23.355)"/><path class="b" d="M52.348,77.872V95.246a7.441,7.441,0,0,1-7.42,7.42h0a7.441,7.441,0,0,1-7.42-7.42V77.872Z" transform="translate(-22.379 -29.597)"/><path class="c" d="M98.291,104.426H58.33L55.046,87.72h39.96Z" transform="translate(-25.516 -31.359)"/><path class="d" d="M53.525,87.72l-6.979,16.706H56.81Z" transform="translate(-23.996 -31.359)"/><path class="a" d="M43.79,59.279h0A12.688,12.688,0,0,1,56.44,71.93v2.616h-25.3V71.93A12.688,12.688,0,0,1,43.79,59.279Z" transform="translate(-21.24 -26.271)"/><path class="a" d="M44.292,41.426A10.346,10.346,0,1,0,33.946,31.08,10.346,10.346,0,0,0,44.292,41.426Z" transform="translate(-21.742 -19.376)"/><path class="a" d="M22.5,30.7h9.24a10.411,10.411,0,0,0,0,4.329H22.5a2.17,2.17,0,0,1-2.164-2.164h0A2.17,2.17,0,0,1,22.5,30.7Zm29.478,0h9.407a2.17,2.17,0,0,1,2.164,2.164h0a2.17,2.17,0,0,1-2.164,2.164H51.976a10.415,10.415,0,0,0,0-4.329Z" transform="translate(-19.307 -21.159)"/><path class="b" d="M45.059,38.671a6.825,6.825,0,1,0-6.824-6.825A6.825,6.825,0,0,0,45.059,38.671Z" transform="translate(-22.509 -20.143)"/><path class="e" d="M67.733,97.787a4.134,4.134,0,0,0-.949-.739,2.792,2.792,0,0,0,1.736-.811,2.343,2.343,0,0,0,.581-1.632,2.528,2.528,0,0,0-.383-1.383,2.017,2.017,0,0,0-1.021-.842,6.384,6.384,0,0,0-2.045-.236H61.92v8.777h1.772V97.26h.359a2.917,2.917,0,0,1,.892.1,1.359,1.359,0,0,1,.533.365,12.391,12.391,0,0,1,.934,1.29l1.281,1.91H69.81l-1.072-1.712A10,10,0,0,0,67.733,97.787ZM65,95.859H63.689V93.632h1.383q1.078,0,1.293.03a1.085,1.085,0,0,1,.668.344,1.053,1.053,0,0,1,.236.715,1.143,1.143,0,0,1-.18.657.955.955,0,0,1-.5.371,6.771,6.771,0,0,1-1.59.11Z" transform="translate(-26.746 -32.149)"/><path class="e" d="M74.469,97.058h4.407V95.58H74.469V93.634h4.736V92.149H72.7v8.777h6.676V99.447h-4.9Z" transform="translate(-28.674 -32.151)"/><path class="e" d="M88,98.01,84.4,92.149H82.679v8.777h1.646V95.2l3.539,5.723h1.778V92.149H88Z" transform="translate(-30.46 -32.151)"/><path class="e" d="M92.676,93.634h2.6v7.292h1.772V93.634h2.6V92.149H92.676Z" transform="translate(-32.248 -32.151)"/><path class="e" d="M92.864,91.622,89.579,74.915a1.026,1.026,0,0,0-1.008-.828H50.078V68.053h4.2a1.026,1.026,0,0,0,1.026-1.026V64.41a13.688,13.688,0,0,0-9.147-12.891L46.2,40.861a11.413,11.413,0,0,0,6.341-7.217h8.617a3.191,3.191,0,1,0,0-6.381H52.542a11.363,11.363,0,0,0-21.819,0H22.274a3.191,3.191,0,1,0,0,6.381h8.694a1.026,1.026,0,0,0,0-2.053H22.274a1.138,1.138,0,0,1,0-2.275h8.047A11.3,11.3,0,0,0,33.148,38a21.227,21.227,0,0,0-12.68,19.378V81.058a2.827,2.827,0,0,0,2.817,2.824H33.79a1.026,1.026,0,0,0,0-2.053H23.285a.773.773,0,0,1-.771-.771V57.377A19.165,19.165,0,0,1,34.819,39.542a11.362,11.362,0,0,0,2.247,1.324l.043,10.482a1.026,1.026,0,0,0,1.026,1.02h.007a1.026,1.026,0,0,0,1.02-1.033l-.039-9.793a11.065,11.065,0,0,0,5.023,0l-.034,9.431A13.63,13.63,0,0,0,27.956,64.41v2.616a1.026,1.026,0,0,0,1.026,1.026H48.026v6.222a1.017,1.017,0,0,0-.1.082.663.663,0,0,0-.048.048c-.016.017-.039.034-.055.054a1.012,1.012,0,0,0-.142.238c0,.007-.01.011-.012.018l-6.7,16.04A6.4,6.4,0,0,1,35.239,84.4V67.362a1.026,1.026,0,1,0-2.053,0V84.4a8.457,8.457,0,0,0,8.446,8.446h5.136a1.026,1.026,0,0,0,0-2.053H43.174l5.083-12.166,2.632,13.391a1.026,1.026,0,0,0,1.008.829h39.96a1.026,1.026,0,0,0,1.008-1.224Zm-31.706-62.3a1.138,1.138,0,0,1,0,2.275H52.947c.037-.374.057-.754.057-1.138s-.021-.764-.057-1.138ZM32.313,30.456a9.32,9.32,0,1,1,9.32,9.32,9.321,9.321,0,0,1-9.32-9.32Zm-2.3,33.955a11.624,11.624,0,1,1,23.249,0V66H30.009ZM52.741,90.793,49.86,76.139H87.729L90.61,90.793Z" transform="translate(-19.083 -19.08)"/><path class="e" d="M68.949,79.278a1.026,1.026,0,0,0,1.026-1.026V61.884A21.2,21.2,0,0,0,60.8,44.46a1.027,1.027,0,1,0-1.168,1.689A19.148,19.148,0,0,1,67.923,61.88V78.252A1.026,1.026,0,0,0,68.949,79.278Z" transform="translate(-26.257 -23.588)"/><g transform="translate(11.485 0.302)"><path class="e" d="M44.837,23.372a7.78,7.78,0,0,0-2.911.562,1.027,1.027,0,0,0,.766,1.9,5.726,5.726,0,0,1,2.149-.411,5.808,5.808,0,1,1-4.707,2.419,1.026,1.026,0,1,0-1.665-1.2,7.847,7.847,0,1,0,6.372-3.272Z" transform="translate(-33.772 -20.149)"/><path class="e" d="M7.84,0A7.78,7.78,0,0,0,4.929.562a1.027,1.027,0,0,0,.766,1.9,5.726,5.726,0,0,1,2.149-.411A5.808,5.808,0,1,1,3.137,4.476a1.026,1.026,0,1,0-1.665-1.2A7.847,7.847,0,1,0,7.844,0Z" transform="translate(10.3 0) rotate(41)"/></g></g><g transform="translate(1112.12 1481.101)"><path class="e" d="M5.406.718a.545.545,0,0,0-.69-.69L3.7.367a3.124,3.124,0,0,1-1.964,0L.718.028a.545.545,0,0,0-.69.69L.367,1.735a3.125,3.125,0,0,1,0,1.964L.028,4.716a.545.545,0,0,0,.69.69l1.017-.339a3.123,3.123,0,0,1,1.964,0l1.017.339a.546.546,0,0,0,.69-.69L5.067,3.7a3.125,3.125,0,0,1,0-1.964Z" transform="matrix(0.891, -0.454, 0.454, 0.891, 7.544, 12.717)"/><path class="e" d="M449.179,172.35a.507.507,0,0,0-.717,0l-1.024,1.024-1.024-1.024a.507.507,0,1,0-.717.717l1.024,1.024-1.024,1.024a.507.507,0,1,0,.717.717l1.024-1.024,1.024,1.024a.507.507,0,1,0,.717-.717l-1.024-1.024,1.024-1.024A.507.507,0,0,0,449.179,172.35Z" transform="translate(-432.596 -172.202)"/><path class="e" d="M239.049,31.122a1.357,1.357,0,1,0-1.357-1.357A1.357,1.357,0,0,0,239.049,31.122Z" transform="translate(-237.692 -24.628)"/></g><g transform="translate(1179.111 1491.959)"><path class="e" d="M5.406.718a.545.545,0,0,0-.69-.69L3.7.367a3.124,3.124,0,0,1-1.964,0L.718.028a.545.545,0,0,0-.69.69L.367,1.735a3.125,3.125,0,0,1,0,1.964L.028,4.716a.545.545,0,0,0,.69.69l1.017-.339a3.123,3.123,0,0,1,1.964,0l1.017.339a.546.546,0,0,0,.69-.69L5.067,3.7a3.125,3.125,0,0,1,0-1.964Z" transform="matrix(0.891, -0.454, 0.454, 0.891, 7.544, 12.717)"/><path class="e" d="M449.179,172.35a.507.507,0,0,0-.717,0l-1.024,1.024-1.024-1.024a.507.507,0,1,0-.717.717l1.024,1.024-1.024,1.024a.507.507,0,1,0,.717.717l1.024-1.024,1.024,1.024a.507.507,0,1,0,.717-.717l-1.024-1.024,1.024-1.024A.507.507,0,0,0,449.179,172.35Z" transform="translate(-432.596 -172.202)"/><path class="e" d="M239.049,31.122a1.357,1.357,0,1,0-1.357-1.357A1.357,1.357,0,0,0,239.049,31.122Z" transform="translate(-237.692 -24.628)"/></g></g></svg>