<svg xmlns="http://www.w3.org/2000/svg" width="90" height="90" viewBox="0 0 90 90">
  <g id="Wide_Range" data-name="Wide Range" transform="translate(-298 -1469)">
    <g id="Rectangle_4097" data-name="Rectangle 4097" transform="translate(298 1469)" fill="#fff" stroke="#707070" stroke-width="1" opacity="0">
      <rect width="90" height="90" stroke="none"/>
      <rect x="0.5" y="0.5" width="89" height="89" fill="none"/>
    </g>
    <g id="noun-motor-sport-4192753" transform="translate(232.993 1342.309)">
      <path id="Path_42981" data-name="Path 42981" d="M88.745,155.435l3.529-1.516h10.192s6.436,4.383,8.646,8.562h8.881l9.684-7.844s14.807-.127,14.76,5.175l-19.9,7.615H102.466a14.258,14.258,0,0,0-12.787-9.666Z" transform="translate(4 1.448)" fill="#ebedef"/>
      <path id="Path_42980" data-name="Path 42980" d="M131.94,168.831l17.23-6.045a1.25,1.25,0,0,0,.837-1.179c0-1.094-.469-2.712-2.7-4.2-4.295-2.859-13.172-3.878-15.694-2.825a1.231,1.231,0,0,0-.407.275l-7.655,7.754h-8.116l-3.177-3.754c-1.074-1.27-4.944-5.413-9.632-5.413H96.34c-2.161,0-3.352,1.218-4.4,2.292a7.834,7.834,0,0,1-1.863,1.551l-1.839-.073a13.411,13.411,0,0,1,5.4-6.193,2.247,2.247,0,0,0-.855-4.155,14.165,14.165,0,0,0-7.377.732,25.693,25.693,0,0,0-11.375,12.945,10.708,10.708,0,0,0-.4,1.231l-.042.151a3.8,3.8,0,0,0,2.886,4.729l.773.161h.006L85,168.426c.307.064.609.141.908.222l-.339,1.213a13.244,13.244,0,1,0,2.407.676l.288-1.032a14.963,14.963,0,0,1,8.264,9.918l2.112,8.187a1.25,1.25,0,0,0,1.21.937H119.7a1.25,1.25,0,0,0,1.213-.947l.872-3.487h1.846a13.223,13.223,0,1,0,0-2.5H122.4l.521-2.083a16.013,16.013,0,0,1,9.017-10.7Zm4.843,12.783h-5.722a5.859,5.859,0,1,1,0,2.5h5.722a1.25,1.25,0,1,0,0-2.5Zm0,9.609a8.359,8.359,0,1,0-8.255-9.609h-2.388a10.723,10.723,0,1,1,0,2.5h2.388A8.365,8.365,0,0,0,136.783,191.223Zm-43.06-33.74c.99-1.012,1.556-1.54,2.616-1.54h6.281c2.871,0,5.873,2.339,7.724,4.528l3.551,4.2a1.248,1.248,0,0,0,.954.443h9.219a1.25,1.25,0,0,0,.889-.372l7.817-7.918c1.964-.54,9.412.184,13.142,2.667a4.216,4.216,0,0,1,1.359,1.314l-16.208,5.686c-.03.011-.059.022-.088.035a18.206,18.206,0,0,0-2.017,1.042H106.111l-1.046-2.16a1.214,1.214,0,0,0-.08-.141,17.621,17.621,0,0,0-11.4-7.641l.137-.138ZM77.1,164.23l-.119-.025A1.3,1.3,0,0,1,76,162.59l.042-.156a8.642,8.642,0,0,1,.3-.949c.165-.4.339-.792.518-1.173a2.726,2.726,0,0,1,1.424,1.5c.14.63-.278,1.475-1.178,2.416Zm8.873,13.46A5.854,5.854,0,1,1,83.23,177c.114,0,.224.011.337.017l-1.54,5.506a1.25,1.25,0,1,0,2.407.674Zm7.978,5.174a10.812,10.812,0,1,1-9.061-10.58l-.641,2.29a8.37,8.37,0,1,0,2.407.675l.643-2.3a10.732,10.732,0,0,1,6.652,9.913Zm24.765,3.184h-17.9L98.951,178.8a17.465,17.465,0,0,0-13.44-12.821L79.849,164.8a4.45,4.45,0,0,0,.873-3.535,5.089,5.089,0,0,0-2.677-3.161,23.3,23.3,0,0,1,8.415-8.243,10.942,10.942,0,0,1,5.276-.6,15.918,15.918,0,0,0-5.937,7.3,2.285,2.285,0,0,0,2.031,3.132l2.463.1h.014l.017,0,.142,0a15.129,15.129,0,0,1,12.389,6.769l5.761,11.894a1.224,1.224,0,0,0,.08.141,7.113,7.113,0,0,0,5.941,3.22l5.135.016Zm1.78-7.123-.1.417-5.752-.018a4.619,4.619,0,0,1-3.816-2.028l-3.5-7.231h18.353a18.489,18.489,0,0,0-5.179,8.86Z" fill="#9c3" stroke="#9c3" stroke-width="0.5"/>
    </g>
  </g>
</svg>
